<svg width="74" height="104" viewBox="0 0 74 104" fill="none" xmlns="http://www.w3.org/2000/svg">
<g clip-path="url(#clip0_171_32)">
<path fill-rule="evenodd" clip-rule="evenodd" d="M66.7952 64.9281C76.3076 59.2504 76.3076 45.0568 66.7952 39.3792L61.7421 36.3632C61.0459 35.9474 60.1552 36.1942 59.7532 36.9141C59.61 37.1706 59.5481 37.4525 59.5592 37.7281C59.5279 37.8586 59.5128 37.9954 59.5168 38.136L59.9488 53.7304C59.9669 54.3941 59.4516 54.9424 58.8094 54.9424C58.1799 54.9424 57.6696 54.4149 57.6696 53.7641V49.7216C57.6696 47.6521 56.0468 45.9746 54.0449 45.9746C52.0429 45.9746 50.4201 47.6521 50.4201 49.7216V62.2926C50.4201 62.7437 50.0665 63.1094 49.63 63.1094C49.1937 63.1094 48.8398 62.7437 48.8398 62.2926V46.4786C48.8398 44.4755 47.2689 42.8515 45.3314 42.8515C43.3936 42.8515 41.8228 44.4755 41.8228 46.4786V56.4074C41.8228 56.8807 41.4516 57.2643 40.9939 57.2643C40.5362 57.2643 40.1651 56.8807 40.1651 56.4074V42.1548C40.1651 39.9747 38.4554 38.2075 36.3466 38.2075C34.2378 38.2075 32.5284 39.9747 32.5284 42.1548V68.2579C32.5284 69.3061 31.7064 70.1558 30.6926 70.1558C29.6788 70.1558 28.8567 69.3061 28.8567 68.2579V35.7891C28.8567 33.5871 27.1299 31.8018 24.9996 31.8018C22.8696 31.8018 21.1427 33.5871 21.1427 35.7891V56.8078C21.1427 58.5634 19.7658 59.9868 18.0675 59.9868C16.3692 59.9868 14.9923 58.5634 14.9923 56.8078V48.6839C14.9923 47.1876 13.8189 45.9746 12.3717 45.9746H5.85379V26.8166C5.85379 17.7789 15.3176 12.1304 22.8887 16.6493L49.2504 32.3834C49.2093 32.6146 49.1876 32.8529 49.1876 33.0964C49.1876 35.2576 50.8826 37.0099 52.9732 37.0099C55.0639 37.0099 56.7589 35.2576 56.7589 33.0964C56.7589 30.9349 55.0639 29.1828 52.9732 29.1828C52.1843 29.1828 51.4517 29.4325 50.8453 29.8593L24.3446 14.0422C14.8323 8.3647 2.94186 15.4616 2.94186 26.8166V47.3723C2.94186 47.3855 2.942 47.3985 2.94233 47.4115C2.94134 47.4339 2.94084 47.4568 2.94084 47.4797C2.94084 48.3109 3.59272 48.9847 4.39682 48.9847H12.0803V56.8078C12.0803 60.226 14.7608 62.9971 18.0675 62.9971C21.3742 62.9971 24.0547 60.226 24.0547 56.8078V35.7891C24.0547 35.2495 24.4777 34.8121 24.9996 34.8121C25.5217 34.8121 25.9448 35.2495 25.9448 35.7891V68.2579C25.9448 70.9686 28.0704 73.1661 30.6926 73.1661C33.3146 73.1661 35.4404 70.9686 35.4404 68.2579V42.1548C35.4404 41.6374 35.8462 41.2179 36.3466 41.2179C36.8473 41.2179 37.2531 41.6374 37.2531 42.1548V56.4074C37.2531 58.5433 38.9278 60.2746 40.9939 60.2746C43.06 60.2746 44.7347 58.5433 44.7347 56.4074V46.4786C44.7347 46.1381 45.0018 45.8618 45.3314 45.8618C45.6608 45.8618 45.9279 46.1381 45.9279 46.4786V62.2926C45.9279 64.4064 47.5853 66.1198 49.63 66.1198C51.6746 66.1198 53.3321 64.4064 53.3321 62.2926V49.7216C53.3321 49.3148 53.6513 48.9847 54.0449 48.9847C54.4386 48.9847 54.7576 49.3148 54.7576 49.7216V53.7641C54.7576 56.0773 56.5718 57.9525 58.8094 57.9525C61.0926 57.9525 62.9247 56.0034 62.8593 53.644L62.4894 40.2852L65.3393 41.9863C72.9103 46.505 72.9103 57.8022 65.3393 62.3209L22.8887 87.6579C15.3176 92.1769 5.85379 86.5283 5.85379 77.4906V58.6917C5.85379 58.6136 5.84803 58.5369 5.83692 58.4619C7.30668 57.9244 8.35956 56.4751 8.35956 54.7716C8.35956 52.6102 6.66474 50.8581 4.57406 50.8581C2.48336 50.8581 0.788513 52.6102 0.788513 54.7716C0.788513 56.3463 1.68831 57.7038 2.98543 58.3248C2.95696 58.4421 2.94186 58.5653 2.94186 58.6917V77.4906C2.94186 88.8457 14.8323 95.9425 24.3446 90.2651L66.7952 64.9281ZM52.9732 34.6014C53.7773 34.6014 54.4292 33.9276 54.4292 33.0964C54.4292 32.2652 53.7773 31.5911 52.9732 31.5911C52.1692 31.5911 51.5173 32.2652 51.5173 33.0964C51.5173 33.9276 52.1692 34.6014 52.9732 34.6014Z" fill="#2F3332"/>
</g>
<defs>
<clipPath id="clip0_171_32">
<rect width="73" height="104" fill="white" transform="translate(0.635254)"/>
</clipPath>
</defs>
</svg>
