<svg width="240" height="46" viewBox="0 0 240 46" fill="none" xmlns="http://www.w3.org/2000/svg">
<path d="M5.96723 40.9726L0 8.74561H7.45107L9.66886 23.8211C9.8603 25.4979 10.0837 27.1907 10.3071 28.9155C10.5304 30.5923 10.7538 32.2851 10.9453 34.0098H11.1367C11.4718 32.301 11.7749 30.5923 12.0781 28.9155C12.4131 27.2067 12.7322 25.4979 13.0673 23.8211L16.5296 8.74561H22.7042L26.1665 23.8211C26.5016 25.466 26.8047 27.1428 27.1079 28.8675C27.4429 30.5444 27.762 32.2531 28.0971 34.0098H28.2885C28.5119 32.2691 28.7353 30.5444 28.9268 28.8675C29.1501 27.1907 29.3895 25.5139 29.6128 23.8211L31.8306 8.74561H38.7869L33.0591 40.9726H23.9168L20.7577 26.3443C20.5024 25.0987 20.2471 23.8371 20.0238 22.5914C19.8323 21.3138 19.6408 20.0682 19.4813 18.8864H19.3058C19.1143 20.0682 18.891 21.3138 18.6676 22.5914C18.4761 23.8371 18.2368 25.0987 17.9815 26.3443L14.966 40.9726H5.96723Z" fill="#2F3332"/>
<path d="M50.6577 24.6675L49.86 27.6379H56.7209L55.9869 24.6675C55.5243 23.0545 55.0774 21.3458 54.6465 19.5252C54.2159 17.7206 53.785 15.964 53.3702 14.2871H53.1789C52.78 15.9959 52.3649 17.7685 51.9502 19.5731C51.5513 21.3458 51.1204 23.0545 50.6577 24.6675ZM39.0107 40.9726L49.0785 8.74561H57.8217L67.8894 40.9726H60.1832L58.2047 33.3071H48.3762L46.3976 40.9726H39.0107Z" fill="#2F3332"/>
<path d="M71.2397 40.9726V8.74561H78.4995V34.8403H91.2319V40.9726H71.2397Z" fill="#2F3332"/>
<path d="M96.6248 40.9726V8.74561H103.885V34.8403H116.617V40.9726H96.6248Z" fill="#2F3332"/>
<path d="M122.009 40.9726V8.74561H142.304V14.878H129.269V22.3359H140.421V28.4683H129.269V40.9726H122.009Z" fill="#2F3332"/>
<path d="M153.361 24.6675L152.563 27.6379H159.424L158.69 24.6675C158.227 23.0545 157.781 21.3458 157.35 19.5252C156.919 17.7206 156.488 15.964 156.074 14.2871H155.882C155.483 15.9959 155.068 17.7685 154.654 19.5731C154.255 21.3458 153.824 23.0545 153.361 24.6675ZM141.714 40.9726L151.782 8.74561H160.525L170.593 40.9726H162.886L160.908 33.3071H151.095L149.117 40.9726H141.714Z" fill="#2F3332"/>
<path d="M173.943 40.9726V8.74561H181.203V40.9726H173.943Z" fill="#2F3332"/>
<path d="M188.622 40.9726V8.74561H200.221C201.929 8.74561 203.524 8.9053 205.008 9.24068C206.524 9.57605 207.832 10.135 208.965 10.9175C210.082 11.6681 210.975 12.6901 211.63 13.9837C212.284 15.2613 212.619 16.8742 212.619 18.7746C212.619 21.1541 212.092 23.1025 211.039 24.6515C210.018 26.1687 208.63 27.3025 206.891 28.069L214.198 40.9726H206.045L199.87 29.3626H195.866V40.9726H188.622ZM195.882 23.5815H199.631C201.546 23.5815 202.982 23.1823 203.971 22.3998C204.992 21.5693 205.503 20.3716 205.503 18.7906C205.503 17.2096 204.992 16.1077 203.971 15.4849C202.982 14.8621 201.53 14.5426 199.631 14.5426H195.882V23.5815Z" fill="#2F3332"/>
<path d="M224.175 41.7456C227.377 41.7456 229.973 39.15 229.973 35.948C229.973 32.7461 227.377 30.1504 224.175 30.1504C220.973 30.1504 218.377 32.7461 218.377 35.948C218.377 39.15 220.973 41.7456 224.175 41.7456Z" fill="#1C1F1E"/>
</svg>
